<?xml version="1.0" encoding="UTF-8" standalone="no"?>
<!DOCTYPE svg PUBLIC "-//W3C//DTD SVG 1.1//EN" "http://www.w3.org/Graphics/SVG/1.1/DTD/svg11.dtd">
<!-- Created with Vectornator (http://vectornator.io/) -->
<svg height="100%" stroke-miterlimit="10" style="fill-rule:nonzero;clip-rule:evenodd;stroke-linecap:round;stroke-linejoin:round;" version="1.1" viewBox="0 0 15 88" width="100%" xml:space="preserve" xmlns="http://www.w3.org/2000/svg" xmlns:vectornator="http://vectornator.io" xmlns:xlink="http://www.w3.org/1999/xlink">
<defs/>
<g id="Untitled" vectornator:layerName="Untitled">
<path d="M13.98 27.343L10.48 23.843C12.3111 21.6004 12.0632 18.3161 9.91621 16.3737C7.76918 14.4314 4.47654 14.5127 2.42798 16.5586C0.379415 18.6045 0.293888 21.8971 2.23347 24.0466C4.17305 26.1961 7.45703 26.4483 9.702 24.62L13.202 28.12C13.4168 28.3348 13.7652 28.3348 13.98 28.12C14.1948 27.9052 14.1948 27.5568 13.98 27.342L13.98 27.343ZM1.959 20.418C1.95955 18.0328 3.89348 16.0996 6.27867 16.1C8.66385 16.1004 10.5972 18.0341 10.597 20.4193C10.5968 22.8045 8.66319 24.738 6.278 24.738C3.89321 24.7358 1.96065 22.8028 1.959 20.418Z" fill="#ffffff" fill-rule="nonzero" opacity="1" stroke="none"/>
</g>
</svg>
